# xmcd
#
# Track frame offsets:
#   150
#   23893
#   113856
#   115430
#   186498
#
# Disc length: 2509 seconds
#
# Revision: 0
# Processed by: cddbd v1.5.2PL0 Copyright (c) Steve Scherf et al.
# Submitted via: GXTranscoder 2.0.1939
#
DISCID=4309cb05
DTITLE=Der kleine König - Die Weihnachtsgeschichte
DYEAR=2006
DGENRE=Books and Spoken
TTITLE0=01
TTITLE1=02
TTITLE2=03
TTITLE3=04
TTITLE4=05
EXTD=
EXTT0=
EXTT1=
EXTT2=
EXTT3=
EXTT4=
PLAYORDER=
